<svg width="112" height="23" viewBox="0 0 112 23" fill="none" xmlns="http://www.w3.org/2000/svg">
<path d="M11.1889 0L13.701 7.73137H21.8303L15.2536 12.5096L17.7656 20.241L11.1889 15.4627L4.61225 20.241L7.12432 12.5096L0.547626 7.73137H8.67687L11.1889 0Z" fill="#FFCA42"/>
<path d="M112 0V9.21443V11.1889V13.4926V15.4627L105.423 20.241L107.935 12.5096L101.359 7.73137L109.488 7.73137L112 0Z" fill="#FFCA42"/>
<path d="M88.1952 0L90.7072 7.73137H98.8365L92.2598 12.5096L94.7719 20.241L88.1952 15.4627L81.6185 20.241L84.1305 12.5096L77.5539 7.73137H85.6831L88.1952 0Z" fill="#FFCA42"/>
<path d="M62.5265 0L65.0385 7.73137H73.1678L66.5911 12.5096L69.1032 20.241L62.5265 15.4627L55.9498 20.241L58.4618 12.5096L51.8851 7.73137H60.0144L62.5265 0Z" fill="#FFCA42"/>
<path d="M36.8577 0L39.3698 7.73137H47.499L40.9223 12.5096L43.4344 20.241L36.8577 15.4627L30.281 20.241L32.7931 12.5096L26.2164 7.73137H34.3456L36.8577 0Z" fill="#FFCA42"/>
</svg>
