<svg width="38" height="38" viewBox="0 0 38 38" fill="none" xmlns="http://www.w3.org/2000/svg">
<path d="M4.84769 11.4708C4.92174 9.8526 5.17511 8.80898 5.51776 7.92311L5.52237 7.91087C5.86192 7.00942 6.39383 6.19279 7.08109 5.51782L7.09074 5.50835L7.10021 5.49871C7.77574 4.81057 8.59265 4.27917 9.49331 3.94052L9.50885 3.93458C10.3927 3.59086 11.4343 3.33844 13.0538 3.2644M4.84769 11.4708C4.76984 13.1997 4.75 13.7356 4.75 18.2183C4.75 22.7021 4.76875 23.2368 4.84765 24.9661M4.84769 11.4708L4.84769 11.9069M5.52378 28.5266C5.86243 29.4273 6.39382 30.2442 7.08196 30.9197L7.09159 30.9292L7.10105 30.9388C7.77605 31.626 8.5927 32.158 9.49416 32.4976L9.50762 32.5026C10.3923 32.8457 11.4344 33.0982 13.0538 33.1723M5.52378 28.5266L5.51783 28.5111C5.17412 27.6272 4.92169 26.5856 4.84765 24.9661M5.52378 28.5266L5.50347 28.4197M4.84765 24.9661L4.87417 25.1058M4.84765 24.9661L4.84765 24.5289M5.50347 28.4197L4.87417 25.1058M5.50347 28.4197C5.2362 27.7136 4.96098 26.7284 4.87417 25.1058M5.50347 28.4197C5.51285 28.4445 5.52221 28.4689 5.53156 28.493C5.87052 29.4067 6.40757 30.2341 7.10413 30.9157C7.78543 31.6121 8.6125 32.1491 9.52595 32.488C10.259 32.7736 11.2919 33.0719 13.0535 33.1527C14.8313 33.2336 15.3805 33.2501 19.8016 33.2501C24.2226 33.2501 24.7723 33.2336 26.5501 33.1526C28.3139 33.0718 29.3456 32.7717 30.0761 32.4884C30.9901 32.1496 31.8176 31.6125 32.4991 30.9156C33.1954 30.2344 33.7323 29.4073 34.0712 28.4939C34.3568 27.7609 34.6552 26.728 34.7359 24.9664C34.8168 23.1886 34.8333 22.6383 34.8333 18.2183C34.8333 13.7984 34.8168 13.2476 34.7359 11.4698C34.6546 9.69684 34.3519 8.66358 34.0672 7.93245C33.6951 6.97185 33.2232 6.24534 32.4979 5.52001C31.7741 4.79756 31.0495 4.32542 30.0882 3.95294C29.3544 3.66608 28.3205 3.36515 26.5501 3.28402C26.3961 3.27701 26.2514 3.27049 26.1125 3.26441M4.87417 25.1058C4.87171 25.06 4.86941 25.0137 4.86727 24.9668C4.86026 24.8128 4.85373 24.6679 4.84765 24.5289M13.0538 3.2644C14.7831 3.1855 15.3189 3.16675 19.8016 3.16675C24.2842 3.16675 24.8198 3.18657 26.5487 3.26441M13.0538 3.2644L13.491 3.2644M26.5487 3.26441L26.1125 3.26441M26.5487 3.26441C28.1671 3.33844 29.2109 3.59177 30.0968 3.93445L30.109 3.93912C31.0105 4.27867 31.8271 4.81058 32.5021 5.49784L32.5115 5.50739L32.521 5.51676C33.2084 6.19179 33.7402 7.00864 34.0795 7.91034L34.0853 7.9256C34.429 8.80944 34.6815 9.85103 34.7555 11.4705M13.491 3.2644L26.1125 3.26441M13.491 3.2644C14.9554 3.20037 15.7648 3.18659 19.8016 3.18659C23.8388 3.18659 24.6479 3.20037 26.1125 3.26441M13.491 3.2644C13.352 3.27047 13.2072 3.277 13.0531 3.28402C11.2893 3.36485 10.2576 3.66493 9.5271 3.94825C8.60969 4.28833 7.77941 4.82824 7.09643 5.52887C6.37787 6.25038 5.90754 6.97342 5.53625 7.93162C5.24937 8.66536 4.94839 9.6998 4.86725 11.4703C4.86026 11.6239 4.85375 11.7683 4.84769 11.9069M34.7555 24.9661C34.6815 26.5856 34.429 27.6277 34.0859 28.5123L34.0808 28.5258C33.7413 29.4272 33.2093 30.2439 32.5221 30.9188L32.5124 30.9283L32.503 30.938C31.8274 31.6261 31.0105 32.1575 30.1099 32.4961L30.0943 32.5021C29.2105 32.8458 28.1689 33.0982 26.5494 33.1723M4.84765 24.5289C4.78362 23.0645 4.76984 22.2552 4.76984 18.2183C4.76984 14.1803 4.78361 13.372 4.84769 11.9069M4.84765 24.5289L4.84769 11.9069M17.1246 24.6813C17.9733 25.0328 18.8829 25.2137 19.8016 25.2137C21.6569 25.2137 23.4362 24.4767 24.7481 23.1648C26.06 21.8529 26.797 20.0736 26.797 18.2183C26.797 16.363 26.06 14.5837 24.7481 13.2718C23.4362 11.9599 21.6569 11.2229 19.8016 11.2229C18.8829 11.2229 17.9733 11.4039 17.1246 11.7554C16.2758 12.107 15.5047 12.6222 14.8551 13.2718C14.2055 13.9214 13.6902 14.6926 13.3387 15.5413C12.9871 16.39 12.8062 17.2997 12.8062 18.2183C12.8062 19.137 12.9871 20.0466 13.3387 20.8954C13.6902 21.7441 14.2055 22.5153 14.8551 23.1648C15.5047 23.8144 16.2758 24.3297 17.1246 24.6813ZM14.8395 13.2562C16.1555 11.9402 17.9404 11.2009 19.8016 11.2009C21.6627 11.2009 23.4477 11.9402 24.7637 13.2562C26.0797 14.5723 26.819 16.3572 26.819 18.2183C26.819 20.0795 26.0797 21.8644 24.7637 23.1804C23.4477 24.4965 21.6627 25.2358 19.8016 25.2358C17.9404 25.2358 16.1555 24.4965 14.8395 23.1804C13.5235 21.8644 12.7841 20.0795 12.7841 18.2183C12.7841 16.3572 13.5235 14.5723 14.8395 13.2562ZM30.7705 9.56705C30.7705 10.0997 30.5589 10.6106 30.1823 10.9873C29.8056 11.364 29.2947 11.5756 28.762 11.5756C28.2293 11.5756 27.7184 11.364 27.3418 10.9873C26.9651 10.6106 26.7535 10.0997 26.7535 9.56705C26.7535 9.03435 26.9651 8.52347 27.3418 8.1468C27.7184 7.77013 28.2293 7.55851 28.762 7.55851C29.2947 7.55851 29.8056 7.77013 30.1823 8.1468C30.5589 8.52347 30.7705 9.03435 30.7705 9.56705Z" stroke="#FF6C01" stroke-linejoin="round"/>
</svg>
