<svg width="38" height="38" viewBox="0 0 38 38" fill="none" xmlns="http://www.w3.org/2000/svg">
<path d="M34.8332 9.38054C33.6686 9.89655 32.4177 10.2452 31.1025 10.4028C32.4442 9.5995 33.4734 8.3248 33.9587 6.80743C32.7036 7.55217 31.3131 8.09329 29.8334 8.38337C28.6479 7.12262 26.9604 6.33325 25.0916 6.33325C21.5046 6.33325 18.5954 9.24247 18.5954 12.8323C18.5954 13.3399 18.654 13.8336 18.7627 14.3106C13.3613 14.0386 8.57631 11.4516 5.37143 7.52148C4.81357 8.48378 4.49281 9.5995 4.49281 10.7877C4.49281 13.0415 5.64059 15.0316 7.3825 16.1961C6.31699 16.1613 5.31564 15.8698 4.43981 15.3831V15.4667C4.43981 18.6144 6.6782 21.2405 9.65157 21.8375C9.10488 21.9853 8.53168 22.0634 7.94035 22.0634C7.52196 22.0634 7.11333 22.0243 6.71725 21.949C7.54428 24.5291 9.94305 26.4091 12.7867 26.4593C10.5623 28.2026 7.76044 29.2416 4.71734 29.2416C4.19296 29.2416 3.67555 29.2109 3.1665 29.1509C6.04225 30.996 9.45632 32.0699 13.1242 32.0699C25.0763 32.0699 31.6102 22.1708 31.6102 13.5854C31.6102 13.3064 31.6032 13.0247 31.5906 12.7458C32.8598 11.8281 33.9615 10.6859 34.8304 9.38472L34.8332 9.38054Z" stroke="#FF6C01" stroke-linejoin="round"/>
</svg>
